<svg width="72" height="72" viewBox="0 0 72 72" fill="none" xmlns="http://www.w3.org/2000/svg">
<g id="Stamp">
<path d="M36 1C55.33 1 71 16.67 71 36C71 55.33 55.33 71 36 71C16.67 71 1 55.33 1 36C1 16.67 16.67 1 36 1ZM4.86719 49.6807C10.1323 61.6452 22.0895 70 36 70C49.9105 70 61.8677 61.6452 67.1328 49.6807H4.86719ZM69.5107 30.9648H2.48926V30.2334C2.169 32.1078 2 34.0343 2 36C2 40.6265 2.926 45.0363 4.59961 49.0566V48.6807H67.5547C69.1309 44.762 70 40.4826 70 36C70 34.0343 69.831 32.1078 69.5107 30.2334V30.9648ZM36 2C19.282 2 5.38226 14.0662 2.53418 29.9648H69.4658C66.6177 14.0662 52.718 2 36 2Z" fill="#FF0000"/>
<path d="M4.86719 49.6807V49.1807H4.10088L4.40954 49.8821L4.86719 49.6807ZM67.1328 49.6807L67.5905 49.8821L67.8991 49.1807H67.1328V49.6807ZM69.5107 30.9648V31.4648H70.0107V30.9648H69.5107ZM2.48926 30.9648H1.98926V31.4648H2.48926V30.9648ZM2.48926 30.2334H2.98926L1.9964 30.1492L2.48926 30.2334ZM4.59961 49.0566L4.13801 49.2488L5.09961 49.0566H4.59961ZM4.59961 48.6807V48.1807H4.09961V48.6807H4.59961ZM67.5547 48.6807V49.1807H67.8925L68.0186 48.8673L67.5547 48.6807ZM69.5107 30.2334L70.0036 30.1492L69.0107 30.2334H69.5107ZM2.53418 29.9648L2.04201 29.8767L1.93665 30.4648H2.53418V29.9648ZM69.4658 29.9648V30.4648H70.0633L69.958 29.8767L69.4658 29.9648ZM36 1V1.5C55.0538 1.5 70.5 16.9462 70.5 36H71H71.5C71.5 16.3939 55.6061 0.5 36 0.5V1ZM71 36H70.5C70.5 55.0538 55.0538 70.5 36 70.5V71V71.5C55.6061 71.5 71.5 55.6061 71.5 36H71ZM36 71V70.5C16.9462 70.5 1.5 55.0538 1.5 36H1H0.5C0.5 55.6061 16.3939 71.5 36 71.5V71ZM1 36H1.5C1.5 16.9462 16.9462 1.5 36 1.5V1V0.5C16.3939 0.5 0.5 16.3939 0.5 36H1ZM4.86719 49.6807L4.40954 49.8821C9.75163 62.0214 21.8841 70.5 36 70.5V70V69.5C22.2949 69.5 10.513 61.269 5.32483 49.4793L4.86719 49.6807ZM36 70V70.5C50.1159 70.5 62.2484 62.0214 67.5905 49.8821L67.1328 49.6807L66.6752 49.4793C61.487 61.269 49.7051 69.5 36 69.5V70ZM67.1328 49.6807V49.1807H4.86719V49.6807V50.1807H67.1328V49.6807ZM69.5107 30.9648V30.4648H2.48926V30.9648V31.4648H69.5107V30.9648ZM2.48926 30.9648H2.98926V30.2334H2.48926H1.98926V30.9648H2.48926ZM2.48926 30.2334L1.9964 30.1492C1.67147 32.051 1.5 34.0055 1.5 36H2H2.5C2.5 34.063 2.66653 32.1647 2.98212 30.3176L2.48926 30.2334ZM2 36H1.5C1.5 40.6937 2.43956 45.1688 4.13801 49.2488L4.59961 49.0566L5.06121 48.8645C3.41244 44.9038 2.5 40.5592 2.5 36H2ZM4.59961 49.0566H5.09961V48.6807H4.59961H4.09961V49.0566H4.59961ZM4.59961 48.6807V49.1807H67.5547V48.6807V48.1807H4.59961V48.6807ZM67.5547 48.6807L68.0186 48.8673C69.6182 44.8904 70.5 40.5478 70.5 36H70H69.5C69.5 40.4175 68.6436 44.6336 67.0908 48.4941L67.5547 48.6807ZM70 36H70.5C70.5 34.0055 70.3285 32.051 70.0036 30.1492L69.5107 30.2334L69.0179 30.3176C69.3335 32.1647 69.5 34.063 69.5 36H70ZM69.5107 30.2334H69.0107V30.9648H69.5107H70.0107V30.2334H69.5107ZM36 2V1.5C19.0356 1.5 4.93204 13.7439 2.04201 29.8767L2.53418 29.9648L3.02635 30.053C5.83249 14.3885 19.5283 2.5 36 2.5V2ZM2.53418 29.9648V30.4648H69.4658V29.9648V29.4648H2.53418V29.9648ZM69.4658 29.9648L69.958 29.8767C67.068 13.7439 52.9644 1.5 36 1.5V2V2.5C52.4717 2.5 66.1675 14.3885 68.9737 30.053L69.4658 29.9648Z" fill="#FF0000"/>
</g>
</svg>
