<svg width="62" height="62" viewBox="0 0 62 62" fill="none" xmlns="http://www.w3.org/2000/svg">
<g id="Union">
<path d="M31 1C47.5685 1 61 14.4315 61 31C61 47.5685 47.5685 61 31 61C14.4315 61 1 47.5685 1 31C1 14.4315 14.4315 1 31 1ZM4.50195 42.7979C9.02172 52.934 19.1851 60 31 60C42.8149 60 52.9783 52.934 57.498 42.7979H4.50195ZM2.31055 26.7559C2.10737 28.1413 2 29.5582 2 31C2 34.8222 2.74132 38.471 4.08496 41.8125V41.7979H57.9209C59.2608 38.4603 60 34.8166 60 31C60 29.5582 59.8926 28.1413 59.6895 26.7559H2.31055ZM31 2C16.7744 2 4.9428 12.2431 2.47461 25.7559H59.5254C57.0572 12.2431 45.2256 2 31 2Z" fill="#FF0000"/>
<path d="M4.50195 42.7979V42.2979H3.73154L4.0453 43.0015L4.50195 42.7979ZM57.498 42.7979L57.9547 43.0015L58.2685 42.2979H57.498V42.7979ZM2.31055 26.7559V26.2559H1.87853L1.81584 26.6833L2.31055 26.7559ZM4.08496 41.8125L3.62106 41.999L4.58496 41.8125H4.08496ZM4.08496 41.7979V41.2979H3.58496V41.7979H4.08496ZM57.9209 41.7979V42.2979H58.259L58.3849 41.9841L57.9209 41.7979ZM59.6895 26.7559L60.1842 26.6833L60.1215 26.2559H59.6895V26.7559ZM2.47461 25.7559L1.98275 25.666L1.87501 26.2559H2.47461V25.7559ZM59.5254 25.7559V26.2559H60.125L60.0173 25.666L59.5254 25.7559ZM31 1V1.5C47.2924 1.5 60.5 14.7076 60.5 31H61H61.5C61.5 14.1553 47.8447 0.5 31 0.5V1ZM61 31H60.5C60.5 47.2924 47.2924 60.5 31 60.5V61V61.5C47.8447 61.5 61.5 47.8447 61.5 31H61ZM31 61V60.5C14.7076 60.5 1.5 47.2924 1.5 31H1H0.5C0.5 47.8447 14.1553 61.5 31 61.5V61ZM1 31H1.5C1.5 14.7076 14.7076 1.5 31 1.5V1V0.5C14.1553 0.5 0.5 14.1553 0.5 31H1ZM4.50195 42.7979L4.0453 43.0015C8.64249 53.3113 18.9806 60.5 31 60.5V60V59.5C19.3896 59.5 9.40095 52.5567 4.95861 42.5942L4.50195 42.7979ZM31 60V60.5C43.0194 60.5 53.3575 53.3113 57.9547 43.0015L57.498 42.7979L57.0414 42.5942C52.599 52.5567 42.6104 59.5 31 59.5V60ZM57.498 42.7979V42.2979H4.50195V42.7979V43.2979H57.498V42.7979ZM2.31055 26.7559L1.81584 26.6833C1.60922 28.0921 1.5 29.5333 1.5 31H2H2.5C2.5 29.5831 2.60551 28.1904 2.80526 26.8284L2.31055 26.7559ZM2 31H1.5C1.5 34.8874 2.25404 38.5994 3.62106 41.999L4.08496 41.8125L4.54886 41.626C3.22859 38.3426 2.5 34.757 2.5 31H2ZM4.08496 41.8125H4.58496V41.7979H4.08496H3.58496V41.8125H4.08496ZM4.08496 41.7979V42.2979H57.9209V41.7979V41.2979H4.08496V41.7979ZM57.9209 41.7979L58.3849 41.9841C59.7481 38.5885 60.5 34.8817 60.5 31H60H59.5C59.5 34.7516 58.7735 38.3321 57.4569 41.6116L57.9209 41.7979ZM60 31H60.5C60.5 29.5333 60.3908 28.0921 60.1842 26.6833L59.6895 26.7559L59.1947 26.8284C59.3945 28.1904 59.5 29.5831 59.5 31H60ZM59.6895 26.7559V26.2559H2.31055V26.7559V27.2559H59.6895V26.7559ZM31 2V1.5C16.5286 1.5 4.49355 11.92 1.98275 25.666L2.47461 25.7559L2.96647 25.8457C5.39206 12.5662 17.0203 2.5 31 2.5V2ZM2.47461 25.7559V26.2559H59.5254V25.7559V25.2559H2.47461V25.7559ZM59.5254 25.7559L60.0173 25.666C57.5065 11.92 45.4714 1.5 31 1.5V2V2.5C44.9797 2.5 56.6079 12.5662 59.0335 25.8457L59.5254 25.7559Z" fill="#FF0000"/>
</g>
</svg>
